<svg width="844" height="75" viewBox="0 0 844 75" fill="none" xmlns="http://www.w3.org/2000/svg">
<path d="M926.387 94.5C926.387 94.5 -35.7747 171.023 -47.6133 93.0117C-59.4519 15 203.387 27.8003 345.387 41.0003C522.887 57.5003 628.887 77.0721 751.387 58.036C849.387 42.8072 908.887 -1.16667 926.387 -7V58.036V94.5Z" fill="white"/>
<path d="M926.387 58.036V94.5M926.387 94.5C926.387 94.5 -35.7747 171.023 -47.6133 93.0117C-59.4519 15 203.387 27.8003 345.387 41.0003C522.887 57.5003 628.887 77.0721 751.387 58.036C849.387 42.8072 908.887 -1.16667 926.387 -7V94.5Z" stroke="white"/>
</svg>
