<svg id="visual" viewBox="0 0 2000 540" width="2000" height="540" xmlns="http://www.w3.org/2000/svg" xmlns:xlink="http://www.w3.org/1999/xlink" version="1.1"><path d="M0 466L27.8 470.8C55.7 475.7 111.3 485.3 166.8 486.8C222.3 488.3 277.7 481.7 333.2 468.3C388.7 455 444.3 435 500 437.5C555.7 440 611.3 465 666.8 470C722.3 475 777.7 460 833.2 445.5C888.7 431 944.3 417 1000 412C1055.7 407 1111.3 411 1166.8 422.5C1222.3 434 1277.7 453 1333.2 467.3C1388.7 481.7 1444.3 491.3 1500 496.5C1555.7 501.7 1611.3 502.3 1666.8 502.3C1722.3 502.3 1777.7 501.7 1833.2 491.8C1888.7 482 1944.3 463 1972.2 453.5L2000 444L2000 541L1972.2 541C1944.3 541 1888.7 541 1833.2 541C1777.7 541 1722.3 541 1666.8 541C1611.3 541 1555.7 541 1500 541C1444.3 541 1388.7 541 1333.2 541C1277.7 541 1222.3 541 1166.8 541C1111.3 541 1055.7 541 1000 541C944.3 541 888.7 541 833.2 541C777.7 541 722.3 541 666.8 541C611.3 541 555.7 541 500 541C444.3 541 388.7 541 333.2 541C277.7 541 222.3 541 166.8 541C111.3 541 55.7 541 27.8 541L0 541Z" fill="#cf2e2e" stroke-linecap="round" stroke-linejoin="miter"></path></svg>