<svg id="visual" viewBox="0 0 2000 540" width="2000" height="540" xmlns="http://www.w3.org/2000/svg" xmlns:xlink="http://www.w3.org/1999/xlink" version="1.1"><path d="M0 327L27.8 348.8C55.7 370.7 111.3 414.3 166.8 432.3C222.3 450.3 277.7 442.7 333.2 443.3C388.7 444 444.3 453 500 461C555.7 469 611.3 476 666.8 462.7C722.3 449.3 777.7 415.7 833.2 389.7C888.7 363.7 944.3 345.3 1000 335.8C1055.7 326.3 1111.3 325.7 1166.8 342.7C1222.3 359.7 1277.7 394.3 1333.2 406.5C1388.7 418.7 1444.3 408.3 1500 398C1555.7 387.7 1611.3 377.3 1666.8 368.2C1722.3 359 1777.7 351 1833.2 346.3C1888.7 341.7 1944.3 340.3 1972.2 339.7L2000 339L2000 541L1972.2 541C1944.3 541 1888.7 541 1833.2 541C1777.7 541 1722.3 541 1666.8 541C1611.3 541 1555.7 541 1500 541C1444.3 541 1388.7 541 1333.2 541C1277.7 541 1222.3 541 1166.8 541C1111.3 541 1055.7 541 1000 541C944.3 541 888.7 541 833.2 541C777.7 541 722.3 541 666.8 541C611.3 541 555.7 541 500 541C444.3 541 388.7 541 333.2 541C277.7 541 222.3 541 166.8 541C111.3 541 55.7 541 27.8 541L0 541Z" fill="#cf2e2e" stroke-linecap="round" stroke-linejoin="miter"></path></svg>