<svg id="visual" viewBox="0 0 2000 540" width="2000" height="540" xmlns="http://www.w3.org/2000/svg" xmlns:xlink="http://www.w3.org/1999/xlink" version="1.1"><path d="M0 440L25.7 437.8C51.3 435.7 102.7 431.3 154 428.7C205.3 426 256.7 425 308 398.2C359.3 371.3 410.7 318.7 461.8 309.7C513 300.7 564 335.3 615.2 362.3C666.3 389.3 717.7 408.7 769 407.5C820.3 406.3 871.7 384.7 923 386.8C974.3 389 1025.7 415 1077 416.7C1128.3 418.3 1179.7 395.7 1231 378C1282.3 360.3 1333.7 347.7 1384.8 354.8C1436 362 1487 389 1538.2 391.5C1589.3 394 1640.7 372 1692 373.8C1743.3 375.7 1794.7 401.3 1846 411.2C1897.3 421 1948.7 415 1974.3 412L2000 409L2000 541L1974.3 541C1948.7 541 1897.3 541 1846 541C1794.7 541 1743.3 541 1692 541C1640.7 541 1589.3 541 1538.2 541C1487 541 1436 541 1384.8 541C1333.7 541 1282.3 541 1231 541C1179.7 541 1128.3 541 1077 541C1025.7 541 974.3 541 923 541C871.7 541 820.3 541 769 541C717.7 541 666.3 541 615.2 541C564 541 513 541 461.8 541C410.7 541 359.3 541 308 541C256.7 541 205.3 541 154 541C102.7 541 51.3 541 25.7 541L0 541Z" fill="#cf2e2e" stroke-linecap="round" stroke-linejoin="miter"></path></svg>