<svg width="84" height="83" viewBox="0 0 84 83" fill="none" xmlns="http://www.w3.org/2000/svg">
<rect x="17.7857" y="17.7857" width="50.2143" height="49.4048" rx="21" fill="#019EDE"/>
<path d="M48.2628 33H38.4075C36.1646 33 35.0432 33 34.1539 33.3533C32.8747 33.8615 31.8615 34.8747 31.3533 36.1539C31 37.0432 31 38.1646 31 40.4075C31 42.5798 31 43.666 31.3377 44.5376C31.8235 45.7914 32.7938 46.7967 34.0297 47.3266C34.8888 47.695 35.9743 47.7334 38.1452 47.8103L43.5 48L52.5 53.5V48C54.5003 47.7469 56 46.0455 56 44.0293V40.7372C56 38.1846 56 36.9082 55.5449 35.9158C55.0458 34.8274 54.1726 33.9542 53.0842 33.4551C52.0918 33 50.8154 33 48.2628 33Z" stroke="white" stroke-width="2"/>
<rect x="35" y="37" width="17" height="1" fill="white"/>
<rect x="35" y="40" width="17" height="1" fill="white"/>
<rect x="35" y="43" width="17" height="1" fill="white"/>
</svg>
